# xmcd
# Copyright (C) 1995-1998 Ti Kan
#
# Track frame offsets:
#       150
#       26978
#       55401
#       81308
#       111904
#       138129
#       167181
#       201139
#       220125
#       245800
#       273493
#       296240
#
# Disc length: 4143 seconds
#
# Revision: 0
# Processed by: cddbd v1.5.2PL0 Copyright (c) Steve Scherf et al.
# Submitted via: CD-Import v1.0
#
DISCID=c2102d0c
DTITLE=Alexander Simon - Viel Lärm Um Nichts - Weltliteratur Für Kinder
DYEAR=1900
DGENRE=
TTITLE0=1 Viel Lärm Um Nichts
TTITLE1=2 Viel Lärm Um Nichts
TTITLE2=3 Viel Lärm Um Nichts
TTITLE3=4 Viel Lärm Um Nichts
TTITLE4=5 Viel Lärm Um Nichts
TTITLE5=6 Viel Lärm Um Nichts
TTITLE6=7 Viel Lärm Um Nichts
TTITLE7=8 Viel Lärm Um Nichts
TTITLE8=9 Viel Lärm Um Nichts
TTITLE9=10 Viel Lärm Um Nichts
TTITLE10=11 Viel Lärm Um Nichts
TTITLE11=12 Viel Lärm Um Nichts
EXTD=
EXTT0=
EXTT1=
EXTT2=
EXTT3=
EXTT4=
EXTT5=
EXTT6=
EXTT7=
EXTT8=
EXTT9=
EXTT10=
EXTT11=
PLAYORDER=
